<?xml version="1.0" encoding="UTF-8"?>
<svg version="1.1" xmlns="http://www.w3.org/2000/svg" width="512" height="512">
<path d="M0 0 C1.01201477 0.00054382 2.02402954 0.00108765 3.06671143 0.00164795 C19.59887291 0.04238923 35.523992 0.95817716 51.75 4.375 C52.78125 4.58930664 53.8125 4.80361328 54.875 5.02441406 C101.10680927 14.94980561 143.72188765 37.60106665 177.75 70.375 C178.7390332 71.32318604 178.7390332 71.32318604 179.74804688 72.29052734 C189.23630305 81.43497479 197.9762044 90.73234009 205.75 101.375 C206.60806152 102.52605017 207.46613451 103.67709177 208.32421875 104.828125 C214.36236829 113.01930614 219.72095521 121.53304105 224.75 130.375 C225.11448242 131.00680176 225.47896484 131.63860352 225.85449219 132.28955078 C240.78473018 158.37464001 250.26385054 187.71085114 254.75 217.375 C254.92660156 218.49745117 255.10320312 219.61990234 255.28515625 220.77636719 C256.9420586 232.38947743 257.14873513 243.90679945 257.125 255.625 C257.12418427 257.14302216 257.12418427 257.14302216 257.12335205 258.69171143 C257.08261077 275.22387291 256.16682284 291.148992 252.75 307.375 C252.42854004 308.921875 252.42854004 308.921875 252.10058594 310.5 C242.17519439 356.73180927 219.52393335 399.34688765 186.75 433.375 C186.11787598 434.03435547 185.48575195 434.69371094 184.83447266 435.37304688 C175.69002521 444.86130305 166.39265991 453.6012044 155.75 461.375 C154.59894983 462.23306152 153.44790823 463.09113451 152.296875 463.94921875 C144.10569386 469.98736829 135.59195895 475.34595521 126.75 480.375 C126.11819824 480.73948242 125.48639648 481.10396484 124.83544922 481.47949219 C98.75035999 496.40973018 69.41414886 505.88885054 39.75 510.375 C38.62754883 510.55160156 37.50509766 510.72820312 36.34863281 510.91015625 C24.73552257 512.5670586 13.21820055 512.77373513 1.5 512.75 C-0.01802216 512.74918427 -0.01802216 512.74918427 -1.56671143 512.74835205 C-18.09887291 512.70761077 -34.023992 511.79182284 -50.25 508.375 C-51.796875 508.05354004 -51.796875 508.05354004 -53.375 507.72558594 C-99.60680927 497.80019439 -142.22188765 475.14893335 -176.25 442.375 C-176.90935547 441.74287598 -177.56871094 441.11075195 -178.24804688 440.45947266 C-187.73630305 431.31502521 -196.4762044 422.01765991 -204.25 411.375 C-205.10806152 410.22394983 -205.96613451 409.07290823 -206.82421875 407.921875 C-212.86236829 399.73069386 -218.22095521 391.21695895 -223.25 382.375 C-223.61448242 381.74319824 -223.97896484 381.11139648 -224.35449219 380.46044922 C-239.28473018 354.37535999 -248.76385054 325.03914886 -253.25 295.375 C-253.51490234 293.69132324 -253.51490234 293.69132324 -253.78515625 291.97363281 C-255.4420586 280.36052257 -255.64873513 268.84320055 -255.625 257.125 C-255.62445618 256.11298523 -255.62391235 255.10097046 -255.62335205 254.05828857 C-255.58261077 237.52612709 -254.66682284 221.601008 -251.25 205.375 C-251.03569336 204.34375 -250.82138672 203.3125 -250.60058594 202.25 C-240.67519439 156.01819073 -218.02393335 113.40311235 -185.25 79.375 C-184.61787598 78.71564453 -183.98575195 78.05628906 -183.33447266 77.37695312 C-174.19002521 67.88869695 -164.89265991 59.1487956 -154.25 51.375 C-153.09894983 50.51693848 -151.94790823 49.65886549 -150.796875 48.80078125 C-142.60569386 42.76263171 -134.09195895 37.40404479 -125.25 32.375 C-124.61819824 32.01051758 -123.98639648 31.64603516 -123.33544922 31.27050781 C-97.25035999 16.34026982 -67.91414886 6.86114946 -38.25 2.375 C-37.12754883 2.19839844 -36.00509766 2.02179687 -34.84863281 1.83984375 C-23.23552257 0.1829414 -11.71820055 -0.02373513 0 0 Z " fill="#A9A9FE" transform="translate(255.25,-0.375)"/>
<path d="M0 0 C82.17347874 0 82.17347874 0 104.6875 21.0625 C120.62254831 37.6577146 123.53100144 57.00446355 123.26953125 79.1640625 C122.77574965 96.8964165 116.81247486 112.98164989 104.33984375 125.859375 C75.21153375 152.50764525 37.51863034 146 0 146 C0 97.82 0 49.64 0 0 Z " fill="#010102" transform="translate(200,183)"/>
<path d="M0 0 C4.24320399 -0.04213291 8.48629281 -0.07253679 12.72964478 -0.09269714 C14.16916021 -0.10111354 15.60866153 -0.11257575 17.04812622 -0.12730408 C34.14630633 -0.29769933 49.09937314 1.98113273 62.15234375 13.99609375 C71.92176203 24.59167848 74.67556047 37.38868294 74.5 51.375 C74.52320313 53.21191406 74.52320313 53.21191406 74.546875 55.0859375 C74.48702152 69.21135955 70.78257329 80.5743751 61.15625 90.99609375 C48.64002664 102.92241314 31.17913701 104.51966397 14.6875 104.25 C13.37587891 104.24484375 12.06425781 104.2396875 10.71289062 104.234375 C1.15501537 104.15501537 1.15501537 104.15501537 0 103 C-0.09527037 101.65927183 -0.1218877 100.31357497 -0.12025452 98.96946716 C-0.12162918 98.10143463 -0.12300385 97.2334021 -0.12442017 96.33906555 C-0.12082489 95.37953476 -0.11722961 94.42000397 -0.11352539 93.43139648 C-0.11367142 92.42663269 -0.11381744 91.4218689 -0.1139679 90.38665771 C-0.1132683 87.04811483 -0.10547374 83.70962695 -0.09765625 80.37109375 C-0.09579224 78.06323782 -0.09436826 75.75538149 -0.09336853 73.44752502 C-0.08954204 67.35982174 -0.07971065 61.27214214 -0.06866455 55.18444824 C-0.05845323 48.97778646 -0.05387151 42.77112087 -0.04882812 36.56445312 C-0.0380885 24.37629165 -0.02101052 12.18814779 0 0 Z " fill="#A7A7FB" transform="translate(224,204)"/>
<path d="M0 0 C4.39218998 -0.22446328 8.78124996 -0.38666898 13.17749023 -0.49438477 C14.66864218 -0.53932712 16.15940464 -0.60051176 17.64916992 -0.67895508 C30.01642169 -1.31327942 30.01642169 -1.31327942 34.90722656 1.92480469 C37.14460218 4.17500194 39.05937022 6.49455005 41 9 C42.26307807 10.15700543 43.55081788 11.28845986 44.875 12.375 C48.24557721 15.26214781 51.38504207 18.34246618 54.5 21.5 C58.18659374 25.23691408 61.96928018 28.77507978 65.9609375 32.18359375 C70.16165408 35.92561139 74.05268048 39.99472636 78 44 C79.66550482 45.6678277 81.33185251 47.33481547 83 49 C82.53215088 49.43755615 82.06430176 49.8751123 81.58227539 50.32592773 C70.08797115 61.08033818 70.08797115 61.08033818 58.890625 72.140625 C57.05003347 73.95079353 55.1505212 75.63675019 53.1875 77.3125 C49.02847436 80.87142575 45.20746162 84.73435125 41.38745117 88.6496582 C40.90638916 89.13909912 40.42532715 89.62854004 39.9296875 90.1328125 C39.50929199 90.56480957 39.08889648 90.99680664 38.65576172 91.44189453 C37.83615967 92.21315674 37.83615967 92.21315674 37 93 C36.10603516 93.87406494 35.21207031 94.74812988 34.29101562 95.64868164 C30.7952388 98.52188423 27.93814188 98.57876284 23.4140625 98.48828125 C22.71227875 98.48120651 22.010495 98.47413177 21.28744507 98.46684265 C19.06550409 98.43905097 16.84616735 98.37635434 14.625 98.3125 C13.11071372 98.28739686 11.59638757 98.26458722 10.08203125 98.24414062 C6.3871874 98.18927846 2.69384825 98.10311808 -1 98 C4.36717181 91.49130899 4.36717181 91.49130899 7.5625 88.875 C11.23187186 85.75360617 14.62037812 82.4266124 18 79 C21.82694233 75.1250505 25.71421862 71.44147959 29.8671875 67.9140625 C33.25832977 64.87072969 36.43198307 61.61023126 39.61328125 58.34960938 C42.91024786 54.99518893 46.34445728 51.96131502 50 49 C49.33613281 48.33742187 48.67226563 47.67484375 47.98828125 46.9921875 C45.74954894 44.75424264 43.52025255 42.50714862 41.29296875 40.2578125 C39.9245318 38.88015605 38.55604103 37.50255306 37.1875 36.125 C36.51396484 35.44308594 35.84042969 34.76117188 35.14648438 34.05859375 C31.17672296 30.06983826 27.09951107 26.29011605 22.8371582 22.61669922 C20.26583864 20.353938 17.89324994 17.95091861 15.5 15.5 C11.66225048 11.61421189 7.75723992 7.92909764 3.55859375 4.4375 C2 3 2 3 0 0 Z " fill="#020203" transform="translate(341,204)"/>
<path d="M0 0 C0 0.66 0 1.32 0 2 C-1.3984375 3.375 -1.3984375 3.375 -3.375 5 C-6.74795148 7.86045355 -9.89673477 10.84869661 -13 14 C-15.89591958 16.93118191 -18.80242571 19.76403174 -21.9375 22.4375 C-25.80174729 25.73967496 -29.35446222 29.32158466 -32.91796875 32.93969727 C-36.2177131 36.27112561 -39.63045038 39.38408649 -43.24609375 42.3671875 C-45.4231522 44.39393679 -47.18606601 46.64786582 -49 49 C-39.31145412 58.88420482 -39.31145412 58.88420482 -29.0546875 68.1640625 C-25.70240362 71.15944924 -22.58833958 74.39189881 -19.43017578 77.58935547 C-16.04307377 81.00223942 -12.55008734 84.21463139 -8.890625 87.3359375 C-5.43253417 90.37962901 -2.11406601 93.60434292 1 97 C1 97.33 1 97.66 1 98 C-28.37475153 100.77927052 -28.37475153 100.77927052 -36.40625 94.68359375 C-39.81608391 91.4482307 -42.63755851 87.85550068 -45.3828125 84.05029297 C-47.62244297 81.21085808 -50.24667815 79.01536648 -53.00976562 76.69946289 C-56.19087928 73.98310713 -59.07600419 70.98733595 -62 68 C-66.3174622 63.62672095 -70.68253515 59.43403481 -75.37890625 55.46484375 C-77.88889732 53.19677953 -79.92120425 50.66345705 -82 48 C-72.61815799 38.44513221 -72.61815799 38.44513221 -68.125 34.625 C-64.56713773 31.58569255 -61.28558309 28.3263598 -58 25 C-54.15769635 21.11012837 -50.31658125 17.34315294 -46.03125 13.93359375 C-43.81037813 11.96564819 -43.81037813 11.96564819 -41.96875 8.91015625 C-32.4166195 -4.67562537 -14.78242664 -1.02473274 0 0 Z " fill="#020203" transform="translate(171,204)"/>
</svg>
